<svg width="260" height="260" viewBox="0 0 260 260" fill="none" xmlns="http://www.w3.org/2000/svg">
<g clip-path="url(#clip0_7_23)">
<rect width="260" height="260" rx="45" fill="white"/>
<path fill-rule="evenodd" clip-rule="evenodd" d="M52 17C32.67 17 17 32.67 17 52V208C17 225.551 29.9187 240.085 46.7659 242.611V42.3561H213.234V242.611C230.081 240.085 243 225.551 243 208V52C243 32.67 227.33 17 208 17H52Z" fill="#191919"/>
<path d="M91.3129 60L74.3129 79C68.3129 106.6 71.8129 240.167 74.3129 303.5L91.3129 313.5H165.813L183.313 303.5C188.513 256.7 185.48 126.667 183.313 79L165.813 60H91.3129Z" fill="#EA3800" stroke="#920000"/>
<path d="M195.5 158.5C195.9 153.3 186.667 151 182 150.5L183 155.5L195.5 158.5Z" fill="#EA3800" stroke="#920000"/>
<path d="M64.0126 159C63.6126 153.8 72.8459 151.5 77.5126 151L76.5126 156L64.0126 159Z" fill="#EA3800" stroke="#920000"/>
<path d="M93.5 173L81.5 137.5C118.7 116.3 161.333 128.667 178 137.5L167.5 173H93.5Z" fill="white" stroke="#920000"/>
<path d="M164 243H96.5L89 281.5C123.4 297.9 158.667 288.333 172 281.5L164 243Z" fill="white" stroke="#920000"/>
<path d="M82.5 261.5V155L85 158C104.6 197.2 91.5 243.333 82.5 261.5Z" fill="white" stroke="#920000"/>
<path d="M178.698 261.5V155L176.198 158C156.598 197.2 169.698 243.333 178.698 261.5Z" fill="white" stroke="#920000"/>
<path d="M80 130.5C84.1667 113.167 98 76.1 120 66.5" stroke="#920000"/>
<path d="M178 131C173.833 113.667 160 76.6 138 67" stroke="#920000"/>
</g>
<defs>
<clipPath id="clip0_7_23">
<rect width="260" height="260" rx="45" fill="white"/>
</clipPath>
</defs>
</svg>
